<svg xmlns="http://www.w3.org/2000/svg" xmlns:xlink="http://www.w3.org/1999/xlink" id="visual" width="4000" height="2000" version="1.1" viewBox="0 0 4000 2000"><g stroke-linejoin="bevel" stroke-width="1"><path fill="#00315e" stroke="#00315e" d="M2087 998L1943 808L1829 920Z"/><path fill="#00315e" stroke="#00315e" d="M1943 808L1781 702L1829 920Z"/><path fill="#114389" stroke="#114389" d="M2087 998L2208 709L1943 808Z"/><path fill="#002442" stroke="#002442" d="M1943 808L1965 446L1781 702Z"/><path fill="#1d4998" stroke="#1d4998" d="M1829 920L2007 1316L2087 998Z"/><path fill="#073d7b" stroke="#073d7b" d="M2087 998L2337 1062L2208 709Z"/><path fill="#01376c" stroke="#01376c" d="M2223 1263L2337 1062L2087 998Z"/><path fill="#073d7b" stroke="#073d7b" d="M2007 1316L2223 1263L2087 998Z"/><path fill="#002b50" stroke="#002b50" d="M1486 1052L1708 1291L1829 920Z"/><path fill="#294fa6" stroke="#294fa6" d="M1829 920L1708 1291L2007 1316Z"/><path fill="#1d4998" stroke="#1d4998" d="M1965 446L1705 566L1781 702Z"/><path fill="#294fa6" stroke="#294fa6" d="M1412 831L1486 1052L1829 920Z"/><path fill="#294fa6" stroke="#294fa6" d="M1412 831L1829 920L1781 702Z"/><path fill="#001e35" stroke="#001e35" d="M2208 709L1965 446L1943 808Z"/><path fill="#002442" stroke="#002442" d="M1474 1250L1720 1416L1708 1291Z"/><path fill="#1d4998" stroke="#1d4998" d="M1708 1291L1720 1416L2007 1316Z"/><path fill="#01376c" stroke="#01376c" d="M2280 1547L2435 1322L2223 1263Z"/><path fill="#002b50" stroke="#002b50" d="M1705 566L1412 831L1781 702Z"/><path fill="#00101c" stroke="#00101c" d="M1311 1332L1474 1250L1486 1052Z"/><path fill="#073d7b" stroke="#073d7b" d="M1486 1052L1474 1250L1708 1291Z"/><path fill="#1d4998" stroke="#1d4998" d="M2223 1263L2435 1322L2337 1062Z"/><path fill="#01376c" stroke="#01376c" d="M2337 1062L2586 729L2208 709Z"/><path fill="#294fa6" stroke="#294fa6" d="M2070 1544L2223 1263L2007 1316Z"/><path fill="#01376c" stroke="#01376c" d="M1720 1416L2070 1544L2007 1316Z"/><path fill="#002442" stroke="#002442" d="M2435 1322L2557 1086L2337 1062Z"/><path fill="#114389" stroke="#114389" d="M2208 709L2287 413L1965 446Z"/><path fill="#00101c" stroke="#00101c" d="M1764 312L1587 454L1705 566Z"/><path fill="#002442" stroke="#002442" d="M1705 566L1587 454L1412 831Z"/><path fill="#021828" stroke="#021828" d="M2581 535L2287 413L2208 709Z"/><path fill="#00315e" stroke="#00315e" d="M1965 446L1764 312L1705 566Z"/><path fill="#002442" stroke="#002442" d="M2253 211L1917 296L1965 446Z"/><path fill="#021828" stroke="#021828" d="M2673 917L2586 729L2337 1062Z"/><path fill="#021828" stroke="#021828" d="M1917 296L1764 312L1965 446Z"/><path fill="#073d7b" stroke="#073d7b" d="M2070 1544L2280 1547L2223 1263Z"/><path fill="#002b50" stroke="#002b50" d="M2807 1298L2673 917L2557 1086Z"/><path fill="#00315e" stroke="#00315e" d="M2557 1086L2673 917L2337 1062Z"/><path fill="#114389" stroke="#114389" d="M1587 454L1258 719L1412 831Z"/><path fill="#114389" stroke="#114389" d="M1197 966L1311 1332L1486 1052Z"/><path fill="#021828" stroke="#021828" d="M2728 702L2581 535L2586 729Z"/><path fill="#073d7b" stroke="#073d7b" d="M2586 729L2581 535L2208 709Z"/><path fill="#00315e" stroke="#00315e" d="M1197 966L1486 1052L1412 831Z"/><path fill="#002b50" stroke="#002b50" d="M1474 1250L1430 1524L1720 1416Z"/><path fill="#021828" stroke="#021828" d="M1790 1761L2022 1764L2070 1544Z"/><path fill="#114389" stroke="#114389" d="M1258 719L1197 966L1412 831Z"/><path fill="#00101c" stroke="#00101c" d="M2412 278L2253 211L2287 413Z"/><path fill="#073d7b" stroke="#073d7b" d="M2287 413L2253 211L1965 446Z"/><path fill="#00101c" stroke="#00101c" d="M1720 0L1541 214L1764 312Z"/><path fill="#073d7b" stroke="#073d7b" d="M1311 1332L1430 1524L1474 1250Z"/><path fill="#00315e" stroke="#00315e" d="M2419 1703L2478 1550L2280 1547Z"/><path fill="#021828" stroke="#021828" d="M2280 1547L2478 1550L2435 1322Z"/><path fill="#002442" stroke="#002442" d="M2435 1322L2807 1298L2557 1086Z"/><path fill="#021828" stroke="#021828" d="M2673 917L2728 702L2586 729Z"/><path fill="#073d7b" stroke="#073d7b" d="M2581 535L2412 278L2287 413Z"/><path fill="#294fa6" stroke="#294fa6" d="M2674 467L2412 278L2581 535Z"/><path fill="#294fa6" stroke="#294fa6" d="M1430 1524L1581 1671L1720 1416Z"/><path fill="#002442" stroke="#002442" d="M2070 1544L2022 1764L2280 1547Z"/><path fill="#00315e" stroke="#00315e" d="M1790 1761L2070 1544L1720 1416Z"/><path fill="#294fa6" stroke="#294fa6" d="M1581 1671L1790 1761L1720 1416Z"/><path fill="#021828" stroke="#021828" d="M1720 0L1764 312L1917 296Z"/><path fill="#00101c" stroke="#00101c" d="M1764 312L1541 214L1587 454Z"/><path fill="#01376c" stroke="#01376c" d="M1587 454L1187 442L1258 719Z"/><path fill="#1d4998" stroke="#1d4998" d="M2728 702L2674 467L2581 535Z"/><path fill="#002442" stroke="#002442" d="M2331 1764L2419 1703L2280 1547Z"/><path fill="#001e35" stroke="#001e35" d="M2022 1764L2331 1764L2280 1547Z"/><path fill="#294fa6" stroke="#294fa6" d="M1311 1332L1284 1553L1430 1524Z"/><path fill="#114389" stroke="#114389" d="M1430 1524L1284 1553L1581 1671Z"/><path fill="#001e35" stroke="#001e35" d="M1772 2000L1996 2000L1790 1761Z"/><path fill="#114389" stroke="#114389" d="M1002 1578L1284 1553L1311 1332Z"/><path fill="#002442" stroke="#002442" d="M2782 1433L2435 1322L2478 1550Z"/><path fill="#021828" stroke="#021828" d="M2782 1433L2807 1298L2435 1322Z"/><path fill="#00101c" stroke="#00101c" d="M2673 917L3038 812L2728 702Z"/><path fill="#073d7b" stroke="#073d7b" d="M1541 214L1187 442L1587 454Z"/><path fill="#002b50" stroke="#002b50" d="M980 690L982 947L1197 966Z"/><path fill="#021828" stroke="#021828" d="M2333 0L1965 0L2253 211Z"/><path fill="#001e35" stroke="#001e35" d="M2253 211L1965 0L1917 296Z"/><path fill="#1d4998" stroke="#1d4998" d="M2836 1733L2782 1433L2478 1550Z"/><path fill="#00101c" stroke="#00101c" d="M1187 442L1079 557L1258 719Z"/><path fill="#00101c" stroke="#00101c" d="M1197 966L975 1188L1311 1332Z"/><path fill="#001e35" stroke="#001e35" d="M1965 0L1720 0L1917 296Z"/><path fill="#021828" stroke="#021828" d="M1541 214L1207 175L1187 442Z"/><path fill="#00101c" stroke="#00101c" d="M980 690L1197 966L1258 719Z"/><path fill="#021828" stroke="#021828" d="M2965 1420L2936 1220L2807 1298Z"/><path fill="#00101c" stroke="#00101c" d="M2807 1298L2936 1220L2673 917Z"/><path fill="#01376c" stroke="#01376c" d="M3024 549L2750 228L2674 467Z"/><path fill="#01376c" stroke="#01376c" d="M2415 0L2253 211L2412 278Z"/><path fill="#002442" stroke="#002442" d="M2415 0L2333 0L2253 211Z"/><path fill="#00101c" stroke="#00101c" d="M1079 557L980 690L1258 719Z"/><path fill="#002442" stroke="#002442" d="M806 1080L975 1188L982 947Z"/><path fill="#073d7b" stroke="#073d7b" d="M982 947L975 1188L1197 966Z"/><path fill="#001e35" stroke="#001e35" d="M2750 228L2415 0L2412 278Z"/><path fill="#002b50" stroke="#002b50" d="M1790 1761L1996 2000L2022 1764Z"/><path fill="#114389" stroke="#114389" d="M2022 1764L2211 2000L2331 1764Z"/><path fill="#002b50" stroke="#002b50" d="M2331 1764L2520 2000L2419 1703Z"/><path fill="#073d7b" stroke="#073d7b" d="M1772 2000L1790 1761L1482 2000Z"/><path fill="#00101c" stroke="#00101c" d="M2674 467L2750 228L2412 278Z"/><path fill="#002442" stroke="#002442" d="M3024 549L2674 467L2728 702Z"/><path fill="#002b50" stroke="#002b50" d="M1482 2000L1790 1761L1581 1671Z"/><path fill="#001e35" stroke="#001e35" d="M1427 0L1207 175L1541 214Z"/><path fill="#002442" stroke="#002442" d="M1187 442L1041 301L1079 557Z"/><path fill="#00315e" stroke="#00315e" d="M742 508L742 690L980 690Z"/><path fill="#021828" stroke="#021828" d="M3057 961L3038 812L2673 917Z"/><path fill="#00101c" stroke="#00101c" d="M1720 0L1427 0L1541 214Z"/><path fill="#294fa6" stroke="#294fa6" d="M1996 2000L2211 2000L2022 1764Z"/><path fill="#294fa6" stroke="#294fa6" d="M2836 1733L2965 1420L2782 1433Z"/><path fill="#1d4998" stroke="#1d4998" d="M2936 1220L3057 961L2673 917Z"/><path fill="#001e35" stroke="#001e35" d="M2782 1433L2965 1420L2807 1298Z"/><path fill="#114389" stroke="#114389" d="M2936 1220L3169 1044L3057 961Z"/><path fill="#00315e" stroke="#00315e" d="M2836 1733L2478 1550L2419 1703Z"/><path fill="#00315e" stroke="#00315e" d="M997 0L1041 301L1207 175Z"/><path fill="#021828" stroke="#021828" d="M1207 175L1041 301L1187 442Z"/><path fill="#294fa6" stroke="#294fa6" d="M3244 682L3024 549L3038 812Z"/><path fill="#021828" stroke="#021828" d="M3038 812L3024 549L2728 702Z"/><path fill="#294fa6" stroke="#294fa6" d="M1002 1578L1201 1793L1284 1553Z"/><path fill="#01376c" stroke="#01376c" d="M1284 1553L1201 1793L1581 1671Z"/><path fill="#114389" stroke="#114389" d="M975 1188L1002 1578L1311 1332Z"/><path fill="#073d7b" stroke="#073d7b" d="M1201 1793L1482 2000L1581 1671Z"/><path fill="#114389" stroke="#114389" d="M742 690L806 1080L982 947Z"/><path fill="#001e35" stroke="#001e35" d="M975 1188L827 1580L1002 1578Z"/><path fill="#1d4998" stroke="#1d4998" d="M742 690L982 947L980 690Z"/><path fill="#294fa6" stroke="#294fa6" d="M2674 2000L2836 1733L2419 1703Z"/><path fill="#294fa6" stroke="#294fa6" d="M1427 0L1251 0L1207 175Z"/><path fill="#00101c" stroke="#00101c" d="M2211 2000L2520 2000L2331 1764Z"/><path fill="#001e35" stroke="#001e35" d="M3259 1274L3169 1044L2936 1220Z"/><path fill="#001e35" stroke="#001e35" d="M3057 961L3169 1044L3038 812Z"/><path fill="#002b50" stroke="#002b50" d="M3259 1274L2936 1220L2965 1420Z"/><path fill="#01376c" stroke="#01376c" d="M2968 0L2726 0L2750 228Z"/><path fill="#114389" stroke="#114389" d="M2750 228L2726 0L2415 0Z"/><path fill="#1d4998" stroke="#1d4998" d="M1201 1793L1303 2000L1482 2000Z"/><path fill="#002b50" stroke="#002b50" d="M1088 2000L1303 2000L1201 1793Z"/><path fill="#00101c" stroke="#00101c" d="M742 508L1079 557L1041 301Z"/><path fill="#002b50" stroke="#002b50" d="M742 508L980 690L1079 557Z"/><path fill="#002442" stroke="#002442" d="M3317 563L3077 327L3024 549Z"/><path fill="#073d7b" stroke="#073d7b" d="M3024 549L3077 327L2750 228Z"/><path fill="#073d7b" stroke="#073d7b" d="M2520 2000L2674 2000L2419 1703Z"/><path fill="#114389" stroke="#114389" d="M494 939L719 1299L806 1080Z"/><path fill="#1d4998" stroke="#1d4998" d="M806 1080L719 1299L975 1188Z"/><path fill="#00101c" stroke="#00101c" d="M1002 1578L919 1794L1201 1793Z"/><path fill="#021828" stroke="#021828" d="M797 240L742 508L1041 301Z"/><path fill="#002442" stroke="#002442" d="M742 690L494 939L806 1080Z"/><path fill="#001e35" stroke="#001e35" d="M719 1299L827 1580L975 1188Z"/><path fill="#294fa6" stroke="#294fa6" d="M3169 1044L3244 682L3038 812Z"/><path fill="#1d4998" stroke="#1d4998" d="M2674 2000L2970 1802L2836 1733Z"/><path fill="#01376c" stroke="#01376c" d="M2836 1733L2970 1802L2965 1420Z"/><path fill="#00315e" stroke="#00315e" d="M3248 1499L3259 1274L2965 1420Z"/><path fill="#002442" stroke="#002442" d="M3169 1044L3476 970L3244 682Z"/><path fill="#002b50" stroke="#002b50" d="M827 1580L919 1794L1002 1578Z"/><path fill="#1d4998" stroke="#1d4998" d="M1251 0L997 0L1207 175Z"/><path fill="#021828" stroke="#021828" d="M997 0L797 240L1041 301Z"/><path fill="#002442" stroke="#002442" d="M919 1794L1088 2000L1201 1793Z"/><path fill="#114389" stroke="#114389" d="M3077 327L2968 0L2750 228Z"/><path fill="#114389" stroke="#114389" d="M3235 0L2968 0L3077 327Z"/><path fill="#002442" stroke="#002442" d="M2970 1802L3248 1499L2965 1420Z"/><path fill="#001e35" stroke="#001e35" d="M3503 764L3317 563L3244 682Z"/><path fill="#01376c" stroke="#01376c" d="M3244 682L3317 563L3024 549Z"/><path fill="#00101c" stroke="#00101c" d="M3476 970L3169 1044L3259 1274Z"/><path fill="#021828" stroke="#021828" d="M797 240L584 517L742 508Z"/><path fill="#002442" stroke="#002442" d="M742 508L584 517L742 690Z"/><path fill="#114389" stroke="#114389" d="M468 793L494 939L742 690Z"/><path fill="#021828" stroke="#021828" d="M529 1429L703 1735L827 1580Z"/><path fill="#002b50" stroke="#002b50" d="M827 1580L703 1735L919 1794Z"/><path fill="#294fa6" stroke="#294fa6" d="M2674 2000L3005 2000L2970 1802Z"/><path fill="#021828" stroke="#021828" d="M2970 1802L3286 1742L3248 1499Z"/><path fill="#294fa6" stroke="#294fa6" d="M529 1429L827 1580L719 1299Z"/><path fill="#073d7b" stroke="#073d7b" d="M919 1794L804 2000L1088 2000Z"/><path fill="#294fa6" stroke="#294fa6" d="M997 0L809 0L797 240Z"/><path fill="#00101c" stroke="#00101c" d="M797 240L469 164L584 517Z"/><path fill="#002442" stroke="#002442" d="M584 517L468 793L742 690Z"/><path fill="#294fa6" stroke="#294fa6" d="M3462 1292L3476 970L3259 1274Z"/><path fill="#114389" stroke="#114389" d="M430 1266L719 1299L494 939Z"/><path fill="#001e35" stroke="#001e35" d="M430 1266L529 1429L719 1299Z"/><path fill="#01376c" stroke="#01376c" d="M3442 417L3290 211L3317 563Z"/><path fill="#001e35" stroke="#001e35" d="M3317 563L3290 211L3077 327Z"/><path fill="#001e35" stroke="#001e35" d="M3512 1472L3462 1292L3248 1499Z"/><path fill="#1d4998" stroke="#1d4998" d="M3248 1499L3462 1292L3259 1274Z"/><path fill="#002b50" stroke="#002b50" d="M3200 2000L3286 1742L2970 1802Z"/><path fill="#294fa6" stroke="#294fa6" d="M3734 777L3503 764L3476 970Z"/><path fill="#114389" stroke="#114389" d="M3476 970L3503 764L3244 682Z"/><path fill="#01376c" stroke="#01376c" d="M266 1217L430 1266L494 939Z"/><path fill="#00101c" stroke="#00101c" d="M439 2000L804 2000L703 1735Z"/><path fill="#002442" stroke="#002442" d="M437 1743L703 1735L529 1429Z"/><path fill="#002442" stroke="#002442" d="M703 1735L804 2000L919 1794Z"/><path fill="#1d4998" stroke="#1d4998" d="M3503 764L3442 417L3317 563Z"/><path fill="#114389" stroke="#114389" d="M3452 0L3235 0L3290 211Z"/><path fill="#294fa6" stroke="#294fa6" d="M3290 211L3235 0L3077 327Z"/><path fill="#00101c" stroke="#00101c" d="M3286 1742L3512 1472L3248 1499Z"/><path fill="#002b50" stroke="#002b50" d="M3005 2000L3200 2000L2970 1802Z"/><path fill="#002b50" stroke="#002b50" d="M3431 1795L3512 1472L3286 1742Z"/><path fill="#00315e" stroke="#00315e" d="M3462 1292L3675 1174L3476 970Z"/><path fill="#002442" stroke="#002442" d="M584 517L338 696L468 793Z"/><path fill="#002b50" stroke="#002b50" d="M468 793L180 1059L494 939Z"/><path fill="#021828" stroke="#021828" d="M273 453L338 696L584 517Z"/><path fill="#1d4998" stroke="#1d4998" d="M3836 279L3436 198L3442 417Z"/><path fill="#01376c" stroke="#01376c" d="M3442 417L3436 198L3290 211Z"/><path fill="#002442" stroke="#002442" d="M809 0L469 164L797 240Z"/><path fill="#114389" stroke="#114389" d="M3200 2000L3431 1795L3286 1742Z"/><path fill="#073d7b" stroke="#073d7b" d="M180 1059L266 1217L494 939Z"/><path fill="#021828" stroke="#021828" d="M430 1266L291 1526L529 1429Z"/><path fill="#001e35" stroke="#001e35" d="M291 1526L437 1743L529 1429Z"/><path fill="#00315e" stroke="#00315e" d="M3512 1472L3675 1174L3462 1292Z"/><path fill="#294fa6" stroke="#294fa6" d="M3503 764L3693 521L3442 417Z"/><path fill="#00315e" stroke="#00315e" d="M3756 1549L3675 1174L3512 1472Z"/><path fill="#002442" stroke="#002442" d="M469 164L273 453L584 517Z"/><path fill="#114389" stroke="#114389" d="M338 696L180 1059L468 793Z"/><path fill="#002b50" stroke="#002b50" d="M3673 0L3452 0L3436 198Z"/><path fill="#002442" stroke="#002442" d="M3436 198L3452 0L3290 211Z"/><path fill="#1d4998" stroke="#1d4998" d="M809 0L468 0L469 164Z"/><path fill="#114389" stroke="#114389" d="M469 164L173 196L273 453Z"/><path fill="#01376c" stroke="#01376c" d="M266 1217L291 1526L430 1266Z"/><path fill="#002b50" stroke="#002b50" d="M3815 937L3734 777L3476 970Z"/><path fill="#002b50" stroke="#002b50" d="M3734 777L3693 521L3503 764Z"/><path fill="#002b50" stroke="#002b50" d="M0 1019L180 1059L0 679Z"/><path fill="#002b50" stroke="#002b50" d="M266 1217L0 1451L291 1526Z"/><path fill="#002442" stroke="#002442" d="M3675 1174L3815 937L3476 970Z"/><path fill="#294fa6" stroke="#294fa6" d="M4000 477L3836 279L3693 521Z"/><path fill="#114389" stroke="#114389" d="M4000 1032L3815 937L3675 1174Z"/><path fill="#01376c" stroke="#01376c" d="M242 1836L439 2000L437 1743Z"/><path fill="#00101c" stroke="#00101c" d="M437 1743L439 2000L703 1735Z"/><path fill="#001e35" stroke="#001e35" d="M3519 2000L3668 1704L3431 1795Z"/><path fill="#073d7b" stroke="#073d7b" d="M3431 1795L3668 1704L3512 1472Z"/><path fill="#114389" stroke="#114389" d="M3200 2000L3519 2000L3431 1795Z"/><path fill="#1d4998" stroke="#1d4998" d="M4000 1333L3756 1549L4000 1570Z"/><path fill="#01376c" stroke="#01376c" d="M3668 1704L3756 1549L3512 1472Z"/><path fill="#002b50" stroke="#002b50" d="M291 1526L242 1836L437 1743Z"/><path fill="#001e35" stroke="#001e35" d="M0 1767L242 1836L291 1526Z"/><path fill="#002b50" stroke="#002b50" d="M243 0L173 196L469 164Z"/><path fill="#021828" stroke="#021828" d="M0 679L180 1059L338 696Z"/><path fill="#021828" stroke="#021828" d="M3836 279L3442 417L3693 521Z"/><path fill="#01376c" stroke="#01376c" d="M3836 279L3673 0L3436 198Z"/><path fill="#01376c" stroke="#01376c" d="M468 0L243 0L469 164Z"/><path fill="#002b50" stroke="#002b50" d="M0 679L338 696L0 579Z"/><path fill="#00315e" stroke="#00315e" d="M180 1059L0 1285L266 1217Z"/><path fill="#114389" stroke="#114389" d="M0 579L273 453L0 210Z"/><path fill="#294fa6" stroke="#294fa6" d="M0 579L338 696L273 453Z"/><path fill="#073d7b" stroke="#073d7b" d="M4000 477L3693 521L3734 777Z"/><path fill="#1d4998" stroke="#1d4998" d="M0 1019L0 1285L180 1059Z"/><path fill="#001e35" stroke="#001e35" d="M0 210L273 453L173 196Z"/><path fill="#1d4998" stroke="#1d4998" d="M0 1285L0 1451L266 1217Z"/><path fill="#002b50" stroke="#002b50" d="M4000 1333L4000 1032L3675 1174Z"/><path fill="#073d7b" stroke="#073d7b" d="M3815 937L4000 781L3734 777Z"/><path fill="#1d4998" stroke="#1d4998" d="M0 2000L217 2000L242 1836Z"/><path fill="#073d7b" stroke="#073d7b" d="M242 1836L217 2000L439 2000Z"/><path fill="#002b50" stroke="#002b50" d="M4000 1032L4000 781L3815 937Z"/><path fill="#00101c" stroke="#00101c" d="M4000 1570L3756 1549L4000 1817Z"/><path fill="#1d4998" stroke="#1d4998" d="M3756 1549L4000 1333L3675 1174Z"/><path fill="#002442" stroke="#002442" d="M4000 781L4000 477L3734 777Z"/><path fill="#002442" stroke="#002442" d="M3836 279L4000 0L3673 0Z"/><path fill="#002b50" stroke="#002b50" d="M0 0L0 210L173 196Z"/><path fill="#114389" stroke="#114389" d="M3519 2000L3810 2000L3668 1704Z"/><path fill="#114389" stroke="#114389" d="M0 1451L0 1767L291 1526Z"/><path fill="#1d4998" stroke="#1d4998" d="M4000 1817L3756 1549L3668 1704Z"/><path fill="#002b50" stroke="#002b50" d="M4000 477L4000 270L3836 279Z"/><path fill="#073d7b" stroke="#073d7b" d="M243 0L0 0L173 196Z"/><path fill="#00315e" stroke="#00315e" d="M3810 2000L4000 1817L3668 1704Z"/><path fill="#294fa6" stroke="#294fa6" d="M0 1767L0 2000L242 1836Z"/><path fill="#00101c" stroke="#00101c" d="M4000 270L4000 0L3836 279Z"/><path fill="#002b50" stroke="#002b50" d="M3810 2000L4000 2000L4000 1817Z"/></g></svg>